<mxfile host="app.diagrams.net" modified="2023-09-24T05:17:55.647Z" agent="Mozilla/5.0 (Windows NT 10.0; Win64; x64) AppleWebKit/537.36 (KHTML, like Gecko) Chrome/117.0.0.0 Safari/537.36" etag="t-DyBv-T6AVOdyXEP9ue" version="21.8.1" type="device">
  <diagram id="R2lEEEUBdFMjLlhIrx00" name="Page-1">
    <mxGraphModel dx="2440" dy="1484" grid="1" gridSize="10" guides="1" tooltips="1" connect="1" arrows="1" fold="1" page="1" pageScale="1" pageWidth="850" pageHeight="1100" math="0" shadow="0" extFonts="Permanent Marker^https://fonts.googleapis.com/css?family=Permanent+Marker">
      <root>
        <mxCell id="0" />
        <mxCell id="1" parent="0" />
        <mxCell id="FdMqnzVVtMSlfl-rAJJf-3" style="rounded=0;orthogonalLoop=1;jettySize=auto;html=1;" parent="1" source="FdMqnzVVtMSlfl-rAJJf-1" target="FdMqnzVVtMSlfl-rAJJf-2" edge="1">
          <mxGeometry relative="1" as="geometry" />
        </mxCell>
        <mxCell id="FdMqnzVVtMSlfl-rAJJf-6" style="edgeStyle=none;shape=connector;rounded=0;orthogonalLoop=1;jettySize=auto;html=1;labelBackgroundColor=default;strokeColor=default;fontFamily=Helvetica;fontSize=11;fontColor=default;endArrow=classic;" parent="1" source="FdMqnzVVtMSlfl-rAJJf-1" target="FdMqnzVVtMSlfl-rAJJf-5" edge="1">
          <mxGeometry relative="1" as="geometry" />
        </mxCell>
        <mxCell id="FdMqnzVVtMSlfl-rAJJf-8" style="edgeStyle=none;shape=connector;rounded=0;orthogonalLoop=1;jettySize=auto;html=1;labelBackgroundColor=default;strokeColor=default;fontFamily=Helvetica;fontSize=11;fontColor=default;endArrow=classic;" parent="1" source="FdMqnzVVtMSlfl-rAJJf-1" target="FdMqnzVVtMSlfl-rAJJf-7" edge="1">
          <mxGeometry relative="1" as="geometry" />
        </mxCell>
        <mxCell id="FdMqnzVVtMSlfl-rAJJf-11" style="edgeStyle=none;shape=connector;rounded=0;orthogonalLoop=1;jettySize=auto;html=1;labelBackgroundColor=default;strokeColor=default;fontFamily=Helvetica;fontSize=11;fontColor=default;endArrow=classic;" parent="1" source="FdMqnzVVtMSlfl-rAJJf-1" target="FdMqnzVVtMSlfl-rAJJf-10" edge="1">
          <mxGeometry relative="1" as="geometry" />
        </mxCell>
        <mxCell id="FdMqnzVVtMSlfl-rAJJf-13" value="" style="edgeStyle=none;shape=connector;rounded=0;orthogonalLoop=1;jettySize=auto;html=1;labelBackgroundColor=default;strokeColor=default;fontFamily=Helvetica;fontSize=11;fontColor=default;endArrow=classic;" parent="1" source="FdMqnzVVtMSlfl-rAJJf-1" target="FdMqnzVVtMSlfl-rAJJf-7" edge="1">
          <mxGeometry relative="1" as="geometry" />
        </mxCell>
        <mxCell id="FdMqnzVVtMSlfl-rAJJf-15" style="edgeStyle=none;shape=connector;rounded=0;orthogonalLoop=1;jettySize=auto;html=1;entryX=0;entryY=0.5;entryDx=0;entryDy=0;labelBackgroundColor=default;strokeColor=default;fontFamily=Helvetica;fontSize=11;fontColor=default;endArrow=classic;" parent="1" source="FdMqnzVVtMSlfl-rAJJf-1" target="FdMqnzVVtMSlfl-rAJJf-14" edge="1">
          <mxGeometry relative="1" as="geometry" />
        </mxCell>
        <mxCell id="FdMqnzVVtMSlfl-rAJJf-19" style="edgeStyle=none;shape=connector;rounded=0;orthogonalLoop=1;jettySize=auto;html=1;labelBackgroundColor=default;strokeColor=default;fontFamily=Helvetica;fontSize=11;fontColor=default;endArrow=classic;" parent="1" source="FdMqnzVVtMSlfl-rAJJf-1" target="KzjgPmNYYBk2v8gUAsIT-24" edge="1">
          <mxGeometry relative="1" as="geometry">
            <mxPoint x="-100" y="-140" as="targetPoint" />
          </mxGeometry>
        </mxCell>
        <mxCell id="KzjgPmNYYBk2v8gUAsIT-26" style="edgeStyle=none;shape=connector;rounded=0;orthogonalLoop=1;jettySize=auto;html=1;labelBackgroundColor=default;strokeColor=default;fontFamily=Helvetica;fontSize=11;fontColor=default;endArrow=classic;" parent="1" source="FdMqnzVVtMSlfl-rAJJf-1" target="KzjgPmNYYBk2v8gUAsIT-25" edge="1">
          <mxGeometry relative="1" as="geometry" />
        </mxCell>
        <mxCell id="KzjgPmNYYBk2v8gUAsIT-28" style="edgeStyle=none;shape=connector;rounded=0;orthogonalLoop=1;jettySize=auto;html=1;labelBackgroundColor=default;strokeColor=default;fontFamily=Helvetica;fontSize=11;fontColor=default;endArrow=classic;" parent="1" source="FdMqnzVVtMSlfl-rAJJf-1" target="KzjgPmNYYBk2v8gUAsIT-27" edge="1">
          <mxGeometry relative="1" as="geometry" />
        </mxCell>
        <mxCell id="FdMqnzVVtMSlfl-rAJJf-1" value="Empleado" style="whiteSpace=wrap;html=1;align=center;" parent="1" vertex="1">
          <mxGeometry x="-55" y="-200" width="100" height="40" as="geometry" />
        </mxCell>
        <mxCell id="FdMqnzVVtMSlfl-rAJJf-2" value="Nombre" style="ellipse;whiteSpace=wrap;html=1;align=center;" parent="1" vertex="1">
          <mxGeometry x="-155" y="-300" width="100" height="40" as="geometry" />
        </mxCell>
        <mxCell id="FdMqnzVVtMSlfl-rAJJf-5" value="Usuario" style="ellipse;whiteSpace=wrap;html=1;align=center;fontFamily=Helvetica;fontSize=11;fontColor=default;" parent="1" vertex="1">
          <mxGeometry x="-100" y="-360" width="100" height="40" as="geometry" />
        </mxCell>
        <mxCell id="FdMqnzVVtMSlfl-rAJJf-7" value="Contrasenia" style="ellipse;whiteSpace=wrap;html=1;align=center;fontFamily=Helvetica;fontSize=11;fontColor=default;" parent="1" vertex="1">
          <mxGeometry x="20" y="-350" width="100" height="40" as="geometry" />
        </mxCell>
        <mxCell id="FdMqnzVVtMSlfl-rAJJf-10" value="Rol" style="ellipse;whiteSpace=wrap;html=1;align=center;fontFamily=Helvetica;fontSize=11;fontColor=default;" parent="1" vertex="1">
          <mxGeometry x="-210" y="-240" width="100" height="40" as="geometry" />
        </mxCell>
        <mxCell id="FdMqnzVVtMSlfl-rAJJf-14" value="No. Caja" style="ellipse;whiteSpace=wrap;html=1;align=center;fontFamily=Helvetica;fontSize=11;fontColor=default;" parent="1" vertex="1">
          <mxGeometry x="100" y="-310" width="100" height="40" as="geometry" />
        </mxCell>
        <mxCell id="KzjgPmNYYBk2v8gUAsIT-3" style="rounded=0;orthogonalLoop=1;jettySize=auto;html=1;" parent="1" source="KzjgPmNYYBk2v8gUAsIT-1" target="KzjgPmNYYBk2v8gUAsIT-2" edge="1">
          <mxGeometry relative="1" as="geometry" />
        </mxCell>
        <mxCell id="KzjgPmNYYBk2v8gUAsIT-5" style="edgeStyle=none;shape=connector;rounded=0;orthogonalLoop=1;jettySize=auto;html=1;labelBackgroundColor=default;strokeColor=default;fontFamily=Helvetica;fontSize=11;fontColor=default;endArrow=classic;" parent="1" source="KzjgPmNYYBk2v8gUAsIT-1" target="KzjgPmNYYBk2v8gUAsIT-4" edge="1">
          <mxGeometry relative="1" as="geometry" />
        </mxCell>
        <mxCell id="KzjgPmNYYBk2v8gUAsIT-7" style="edgeStyle=none;shape=connector;rounded=0;orthogonalLoop=1;jettySize=auto;html=1;labelBackgroundColor=default;strokeColor=default;fontFamily=Helvetica;fontSize=11;fontColor=default;endArrow=classic;" parent="1" source="KzjgPmNYYBk2v8gUAsIT-1" target="KzjgPmNYYBk2v8gUAsIT-6" edge="1">
          <mxGeometry relative="1" as="geometry" />
        </mxCell>
        <mxCell id="KzjgPmNYYBk2v8gUAsIT-45" style="edgeStyle=none;shape=connector;rounded=0;orthogonalLoop=1;jettySize=auto;html=1;labelBackgroundColor=default;strokeColor=default;fontFamily=Helvetica;fontSize=11;fontColor=default;endArrow=classic;entryX=0.5;entryY=1;entryDx=0;entryDy=0;" parent="1" source="KzjgPmNYYBk2v8gUAsIT-1" target="KzjgPmNYYBk2v8gUAsIT-46" edge="1">
          <mxGeometry relative="1" as="geometry">
            <mxPoint x="-350" y="-110" as="targetPoint" />
          </mxGeometry>
        </mxCell>
        <mxCell id="KzjgPmNYYBk2v8gUAsIT-1" value="Sucursal" style="rounded=1;arcSize=10;whiteSpace=wrap;html=1;align=center;" parent="1" vertex="1">
          <mxGeometry x="-550" y="-120" width="100" height="40" as="geometry" />
        </mxCell>
        <mxCell id="KzjgPmNYYBk2v8gUAsIT-2" value="&lt;span style=&quot;border-bottom: 1px dotted&quot;&gt;id&lt;br&gt;&lt;/span&gt;" style="ellipse;whiteSpace=wrap;html=1;align=center;" parent="1" vertex="1">
          <mxGeometry x="-730" y="-190" width="100" height="40" as="geometry" />
        </mxCell>
        <mxCell id="KzjgPmNYYBk2v8gUAsIT-4" value="Nombre" style="ellipse;whiteSpace=wrap;html=1;align=center;fontFamily=Helvetica;fontSize=11;fontColor=default;" parent="1" vertex="1">
          <mxGeometry x="-750" y="-120" width="100" height="40" as="geometry" />
        </mxCell>
        <mxCell id="KzjgPmNYYBk2v8gUAsIT-6" value="No. Cajas" style="ellipse;whiteSpace=wrap;html=1;align=center;fontFamily=Helvetica;fontSize=11;fontColor=default;" parent="1" vertex="1">
          <mxGeometry x="-690" y="-250" width="100" height="40" as="geometry" />
        </mxCell>
        <mxCell id="KzjgPmNYYBk2v8gUAsIT-10" style="edgeStyle=none;shape=connector;rounded=0;orthogonalLoop=1;jettySize=auto;html=1;labelBackgroundColor=default;strokeColor=default;fontFamily=Helvetica;fontSize=11;fontColor=default;endArrow=classic;" parent="1" source="KzjgPmNYYBk2v8gUAsIT-8" target="KzjgPmNYYBk2v8gUAsIT-9" edge="1">
          <mxGeometry relative="1" as="geometry" />
        </mxCell>
        <mxCell id="KzjgPmNYYBk2v8gUAsIT-12" style="edgeStyle=none;shape=connector;rounded=0;orthogonalLoop=1;jettySize=auto;html=1;labelBackgroundColor=default;strokeColor=default;fontFamily=Helvetica;fontSize=11;fontColor=default;endArrow=classic;" parent="1" source="KzjgPmNYYBk2v8gUAsIT-8" target="KzjgPmNYYBk2v8gUAsIT-11" edge="1">
          <mxGeometry relative="1" as="geometry" />
        </mxCell>
        <mxCell id="KzjgPmNYYBk2v8gUAsIT-14" style="edgeStyle=none;shape=connector;rounded=0;orthogonalLoop=1;jettySize=auto;html=1;labelBackgroundColor=default;strokeColor=default;fontFamily=Helvetica;fontSize=11;fontColor=default;endArrow=classic;entryX=1;entryY=0.5;entryDx=0;entryDy=0;" parent="1" source="KzjgPmNYYBk2v8gUAsIT-8" target="KzjgPmNYYBk2v8gUAsIT-13" edge="1">
          <mxGeometry relative="1" as="geometry">
            <mxPoint x="-490.00313979300836" y="431.32117742237824" as="targetPoint" />
          </mxGeometry>
        </mxCell>
        <mxCell id="KzjgPmNYYBk2v8gUAsIT-21" style="edgeStyle=none;shape=connector;rounded=0;orthogonalLoop=1;jettySize=auto;html=1;labelBackgroundColor=default;strokeColor=default;fontFamily=Helvetica;fontSize=11;fontColor=default;endArrow=classic;entryX=1;entryY=0.5;entryDx=0;entryDy=0;" parent="1" source="KzjgPmNYYBk2v8gUAsIT-8" target="KzjgPmNYYBk2v8gUAsIT-20" edge="1">
          <mxGeometry relative="1" as="geometry">
            <mxPoint x="-457.258621224576" y="378.5158127696732" as="targetPoint" />
          </mxGeometry>
        </mxCell>
        <mxCell id="KzjgPmNYYBk2v8gUAsIT-105" style="edgeStyle=none;shape=connector;rounded=0;orthogonalLoop=1;jettySize=auto;html=1;entryX=0.5;entryY=1;entryDx=0;entryDy=0;labelBackgroundColor=default;strokeColor=default;fontFamily=Helvetica;fontSize=11;fontColor=default;endArrow=none;endFill=0;" parent="1" source="KzjgPmNYYBk2v8gUAsIT-8" target="KzjgPmNYYBk2v8gUAsIT-104" edge="1">
          <mxGeometry relative="1" as="geometry" />
        </mxCell>
        <mxCell id="KzjgPmNYYBk2v8gUAsIT-108" value="1:N" style="edgeLabel;html=1;align=center;verticalAlign=middle;resizable=0;points=[];fontSize=11;fontFamily=Helvetica;fontColor=default;" parent="KzjgPmNYYBk2v8gUAsIT-105" vertex="1" connectable="0">
          <mxGeometry x="-0.0448" relative="1" as="geometry">
            <mxPoint as="offset" />
          </mxGeometry>
        </mxCell>
        <mxCell id="h8VuNswX9k5Umud3PTe8-15" style="edgeStyle=none;shape=connector;rounded=0;orthogonalLoop=1;jettySize=auto;html=1;labelBackgroundColor=default;strokeColor=default;fontFamily=Helvetica;fontSize=11;fontColor=default;endArrow=none;endFill=0;" parent="1" source="KzjgPmNYYBk2v8gUAsIT-8" target="h8VuNswX9k5Umud3PTe8-14" edge="1">
          <mxGeometry relative="1" as="geometry" />
        </mxCell>
        <mxCell id="h8VuNswX9k5Umud3PTe8-24" value="N:1" style="edgeLabel;html=1;align=center;verticalAlign=middle;resizable=0;points=[];fontSize=11;fontFamily=Helvetica;fontColor=default;" parent="h8VuNswX9k5Umud3PTe8-15" vertex="1" connectable="0">
          <mxGeometry x="0.0654" relative="1" as="geometry">
            <mxPoint as="offset" />
          </mxGeometry>
        </mxCell>
        <mxCell id="KzjgPmNYYBk2v8gUAsIT-8" value="Producto" style="whiteSpace=wrap;html=1;align=center;fontFamily=Helvetica;fontSize=11;fontColor=default;" parent="1" vertex="1">
          <mxGeometry x="-416.48" y="365" width="100" height="40" as="geometry" />
        </mxCell>
        <mxCell id="KzjgPmNYYBk2v8gUAsIT-9" value="Nombre" style="ellipse;whiteSpace=wrap;html=1;align=center;fontFamily=Helvetica;fontSize=11;fontColor=default;" parent="1" vertex="1">
          <mxGeometry x="-570" y="470.85" width="100" height="40" as="geometry" />
        </mxCell>
        <mxCell id="KzjgPmNYYBk2v8gUAsIT-11" value="Descripcion" style="ellipse;whiteSpace=wrap;html=1;align=center;fontFamily=Helvetica;fontSize=11;fontColor=default;" parent="1" vertex="1">
          <mxGeometry x="-490" y="500" width="100" height="40" as="geometry" />
        </mxCell>
        <mxCell id="KzjgPmNYYBk2v8gUAsIT-13" value="Precio" style="ellipse;whiteSpace=wrap;html=1;align=center;fontFamily=Helvetica;fontSize=11;fontColor=default;" parent="1" vertex="1">
          <mxGeometry x="-640" y="410.85" width="100" height="40" as="geometry" />
        </mxCell>
        <mxCell id="KzjgPmNYYBk2v8gUAsIT-20" value="idP" style="ellipse;whiteSpace=wrap;html=1;align=center;fontStyle=4;fontFamily=Helvetica;fontSize=11;fontColor=default;" parent="1" vertex="1">
          <mxGeometry x="-610" y="355" width="100" height="40" as="geometry" />
        </mxCell>
        <mxCell id="KzjgPmNYYBk2v8gUAsIT-24" value="ID" style="ellipse;whiteSpace=wrap;html=1;align=center;fontStyle=4;fontFamily=Helvetica;fontSize=11;fontColor=default;" parent="1" vertex="1">
          <mxGeometry x="-210" y="-170" width="100" height="40" as="geometry" />
        </mxCell>
        <mxCell id="KzjgPmNYYBk2v8gUAsIT-25" value="Sucursal Actual" style="ellipse;whiteSpace=wrap;html=1;align=center;fontFamily=Helvetica;fontSize=11;fontColor=default;" parent="1" vertex="1">
          <mxGeometry x="130" y="-250" width="100" height="40" as="geometry" />
        </mxCell>
        <mxCell id="KzjgPmNYYBk2v8gUAsIT-27" value="Apelldio" style="ellipse;whiteSpace=wrap;html=1;align=center;fontFamily=Helvetica;fontSize=11;fontColor=default;" parent="1" vertex="1">
          <mxGeometry x="130" y="-200" width="100" height="40" as="geometry" />
        </mxCell>
        <mxCell id="KzjgPmNYYBk2v8gUAsIT-34" style="edgeStyle=none;shape=connector;rounded=0;orthogonalLoop=1;jettySize=auto;html=1;labelBackgroundColor=default;strokeColor=default;fontFamily=Helvetica;fontSize=11;fontColor=default;endArrow=classic;" parent="1" source="KzjgPmNYYBk2v8gUAsIT-29" target="KzjgPmNYYBk2v8gUAsIT-33" edge="1">
          <mxGeometry relative="1" as="geometry" />
        </mxCell>
        <mxCell id="KzjgPmNYYBk2v8gUAsIT-35" style="edgeStyle=none;shape=connector;rounded=0;orthogonalLoop=1;jettySize=auto;html=1;labelBackgroundColor=default;strokeColor=default;fontFamily=Helvetica;fontSize=11;fontColor=default;endArrow=classic;entryX=0.5;entryY=0;entryDx=0;entryDy=0;" parent="1" source="KzjgPmNYYBk2v8gUAsIT-29" target="KzjgPmNYYBk2v8gUAsIT-36" edge="1">
          <mxGeometry relative="1" as="geometry">
            <mxPoint x="400" y="-140" as="targetPoint" />
          </mxGeometry>
        </mxCell>
        <mxCell id="KzjgPmNYYBk2v8gUAsIT-39" style="edgeStyle=none;shape=connector;rounded=0;orthogonalLoop=1;jettySize=auto;html=1;labelBackgroundColor=default;strokeColor=default;fontFamily=Helvetica;fontSize=11;fontColor=default;endArrow=classic;" parent="1" source="KzjgPmNYYBk2v8gUAsIT-29" target="KzjgPmNYYBk2v8gUAsIT-38" edge="1">
          <mxGeometry relative="1" as="geometry" />
        </mxCell>
        <mxCell id="KzjgPmNYYBk2v8gUAsIT-41" style="edgeStyle=none;shape=connector;rounded=0;orthogonalLoop=1;jettySize=auto;html=1;labelBackgroundColor=default;strokeColor=default;fontFamily=Helvetica;fontSize=11;fontColor=default;endArrow=classic;" parent="1" source="KzjgPmNYYBk2v8gUAsIT-29" target="KzjgPmNYYBk2v8gUAsIT-40" edge="1">
          <mxGeometry relative="1" as="geometry" />
        </mxCell>
        <mxCell id="KzjgPmNYYBk2v8gUAsIT-42" style="edgeStyle=none;shape=connector;rounded=0;orthogonalLoop=1;jettySize=auto;html=1;labelBackgroundColor=default;strokeColor=default;fontFamily=Helvetica;fontSize=11;fontColor=default;endArrow=classic;entryX=0;entryY=0.5;entryDx=0;entryDy=0;" parent="1" source="KzjgPmNYYBk2v8gUAsIT-29" target="KzjgPmNYYBk2v8gUAsIT-43" edge="1">
          <mxGeometry relative="1" as="geometry">
            <mxPoint x="520" y="-100" as="targetPoint" />
          </mxGeometry>
        </mxCell>
        <mxCell id="KzjgPmNYYBk2v8gUAsIT-70" style="edgeStyle=none;shape=connector;rounded=0;orthogonalLoop=1;jettySize=auto;html=1;labelBackgroundColor=default;strokeColor=default;fontFamily=Helvetica;fontSize=11;fontColor=default;endArrow=classic;" parent="1" source="KzjgPmNYYBk2v8gUAsIT-29" target="KzjgPmNYYBk2v8gUAsIT-71" edge="1">
          <mxGeometry relative="1" as="geometry">
            <mxPoint x="530" y="-60" as="targetPoint" />
          </mxGeometry>
        </mxCell>
        <mxCell id="KzjgPmNYYBk2v8gUAsIT-72" style="edgeStyle=none;shape=connector;rounded=0;orthogonalLoop=1;jettySize=auto;html=1;labelBackgroundColor=default;strokeColor=default;fontFamily=Helvetica;fontSize=11;fontColor=default;endArrow=classic;entryX=0.084;entryY=0.179;entryDx=0;entryDy=0;entryPerimeter=0;" parent="1" source="KzjgPmNYYBk2v8gUAsIT-29" target="KzjgPmNYYBk2v8gUAsIT-73" edge="1">
          <mxGeometry relative="1" as="geometry">
            <mxPoint x="510" y="-30" as="targetPoint" />
          </mxGeometry>
        </mxCell>
        <mxCell id="KzjgPmNYYBk2v8gUAsIT-29" value="Factura" style="rounded=1;arcSize=10;whiteSpace=wrap;html=1;align=center;fontFamily=Helvetica;fontSize=11;fontColor=default;" parent="1" vertex="1">
          <mxGeometry x="350" y="-100" width="100" height="40" as="geometry" />
        </mxCell>
        <mxCell id="KzjgPmNYYBk2v8gUAsIT-33" value="&lt;u&gt;No. Factura&lt;/u&gt;" style="ellipse;whiteSpace=wrap;html=1;align=center;fontFamily=Helvetica;fontSize=11;fontColor=default;" parent="1" vertex="1">
          <mxGeometry x="550" y="-30" width="100" height="40" as="geometry" />
        </mxCell>
        <mxCell id="KzjgPmNYYBk2v8gUAsIT-36" value="Nit Cliente" style="ellipse;whiteSpace=wrap;html=1;align=center;fontFamily=Helvetica;fontSize=11;fontColor=default;" parent="1" vertex="1">
          <mxGeometry x="510" y="20" width="100" height="40" as="geometry" />
        </mxCell>
        <mxCell id="KzjgPmNYYBk2v8gUAsIT-38" value="Cajero ID" style="ellipse;whiteSpace=wrap;html=1;align=center;fontFamily=Helvetica;fontSize=11;fontColor=default;" parent="1" vertex="1">
          <mxGeometry x="260" y="-220" width="100" height="40" as="geometry" />
        </mxCell>
        <mxCell id="KzjgPmNYYBk2v8gUAsIT-40" value="Fecha" style="ellipse;whiteSpace=wrap;html=1;align=center;fontFamily=Helvetica;fontSize=11;fontColor=default;" parent="1" vertex="1">
          <mxGeometry x="380" y="-220" width="100" height="40" as="geometry" />
        </mxCell>
        <mxCell id="KzjgPmNYYBk2v8gUAsIT-43" value="SucursalV" style="ellipse;whiteSpace=wrap;html=1;align=center;fontFamily=Helvetica;fontSize=11;fontColor=default;" parent="1" vertex="1">
          <mxGeometry x="500" y="-210" width="100" height="40" as="geometry" />
        </mxCell>
        <mxCell id="KzjgPmNYYBk2v8gUAsIT-63" style="edgeStyle=none;shape=connector;rounded=0;orthogonalLoop=1;jettySize=auto;html=1;labelBackgroundColor=default;strokeColor=default;fontFamily=Helvetica;fontSize=11;fontColor=default;endArrow=classic;" parent="1" source="KzjgPmNYYBk2v8gUAsIT-44" target="KzjgPmNYYBk2v8gUAsIT-60" edge="1">
          <mxGeometry relative="1" as="geometry" />
        </mxCell>
        <mxCell id="KzjgPmNYYBk2v8gUAsIT-64" style="edgeStyle=none;shape=connector;rounded=0;orthogonalLoop=1;jettySize=auto;html=1;labelBackgroundColor=default;strokeColor=default;fontFamily=Helvetica;fontSize=11;fontColor=default;endArrow=classic;" parent="1" source="KzjgPmNYYBk2v8gUAsIT-44" target="KzjgPmNYYBk2v8gUAsIT-61" edge="1">
          <mxGeometry relative="1" as="geometry" />
        </mxCell>
        <mxCell id="KzjgPmNYYBk2v8gUAsIT-65" style="edgeStyle=none;shape=connector;rounded=0;orthogonalLoop=1;jettySize=auto;html=1;labelBackgroundColor=default;strokeColor=default;fontFamily=Helvetica;fontSize=11;fontColor=default;endArrow=classic;" parent="1" source="KzjgPmNYYBk2v8gUAsIT-44" target="KzjgPmNYYBk2v8gUAsIT-62" edge="1">
          <mxGeometry relative="1" as="geometry" />
        </mxCell>
        <mxCell id="KzjgPmNYYBk2v8gUAsIT-69" style="edgeStyle=none;shape=connector;rounded=0;orthogonalLoop=1;jettySize=auto;html=1;labelBackgroundColor=default;strokeColor=default;fontFamily=Helvetica;fontSize=11;fontColor=default;endArrow=classic;" parent="1" source="KzjgPmNYYBk2v8gUAsIT-44" target="KzjgPmNYYBk2v8gUAsIT-68" edge="1">
          <mxGeometry relative="1" as="geometry" />
        </mxCell>
        <mxCell id="KzjgPmNYYBk2v8gUAsIT-118" style="edgeStyle=none;shape=connector;rounded=0;orthogonalLoop=1;jettySize=auto;html=1;labelBackgroundColor=default;strokeColor=default;fontFamily=Helvetica;fontSize=11;fontColor=default;endArrow=none;endFill=0;" parent="1" source="KzjgPmNYYBk2v8gUAsIT-44" target="KzjgPmNYYBk2v8gUAsIT-117" edge="1">
          <mxGeometry relative="1" as="geometry" />
        </mxCell>
        <mxCell id="KzjgPmNYYBk2v8gUAsIT-120" value="1:1" style="edgeLabel;html=1;align=center;verticalAlign=middle;resizable=0;points=[];fontSize=11;fontFamily=Helvetica;fontColor=default;" parent="KzjgPmNYYBk2v8gUAsIT-118" vertex="1" connectable="0">
          <mxGeometry x="-0.0713" relative="1" as="geometry">
            <mxPoint as="offset" />
          </mxGeometry>
        </mxCell>
        <mxCell id="KzjgPmNYYBk2v8gUAsIT-130" style="edgeStyle=none;shape=connector;rounded=0;orthogonalLoop=1;jettySize=auto;html=1;entryX=1;entryY=0;entryDx=0;entryDy=0;labelBackgroundColor=default;strokeColor=default;fontFamily=Helvetica;fontSize=11;fontColor=default;endArrow=none;endFill=0;" parent="1" source="KzjgPmNYYBk2v8gUAsIT-44" target="KzjgPmNYYBk2v8gUAsIT-129" edge="1">
          <mxGeometry relative="1" as="geometry" />
        </mxCell>
        <mxCell id="KzjgPmNYYBk2v8gUAsIT-132" value="1:1" style="edgeLabel;html=1;align=center;verticalAlign=middle;resizable=0;points=[];fontSize=11;fontFamily=Helvetica;fontColor=default;" parent="KzjgPmNYYBk2v8gUAsIT-130" vertex="1" connectable="0">
          <mxGeometry x="-0.1021" y="2" relative="1" as="geometry">
            <mxPoint as="offset" />
          </mxGeometry>
        </mxCell>
        <mxCell id="KzjgPmNYYBk2v8gUAsIT-44" value="Cliente" style="whiteSpace=wrap;html=1;align=center;fontFamily=Helvetica;fontSize=11;fontColor=default;" parent="1" vertex="1">
          <mxGeometry x="585" y="288" width="100" height="40" as="geometry" />
        </mxCell>
        <mxCell id="KzjgPmNYYBk2v8gUAsIT-46" value="No. bodegas" style="ellipse;whiteSpace=wrap;html=1;align=center;fontFamily=Helvetica;fontSize=11;fontColor=default;" parent="1" vertex="1">
          <mxGeometry x="-590" y="-280" width="100" height="40" as="geometry" />
        </mxCell>
        <mxCell id="KzjgPmNYYBk2v8gUAsIT-49" style="edgeStyle=none;shape=connector;rounded=0;orthogonalLoop=1;jettySize=auto;html=1;labelBackgroundColor=default;strokeColor=default;fontFamily=Helvetica;fontSize=11;fontColor=default;endArrow=classic;" parent="1" source="KzjgPmNYYBk2v8gUAsIT-47" target="KzjgPmNYYBk2v8gUAsIT-48" edge="1">
          <mxGeometry relative="1" as="geometry" />
        </mxCell>
        <mxCell id="KzjgPmNYYBk2v8gUAsIT-51" style="edgeStyle=none;shape=connector;rounded=0;orthogonalLoop=1;jettySize=auto;html=1;labelBackgroundColor=default;strokeColor=default;fontFamily=Helvetica;fontSize=11;fontColor=default;endArrow=classic;" parent="1" source="KzjgPmNYYBk2v8gUAsIT-47" target="KzjgPmNYYBk2v8gUAsIT-50" edge="1">
          <mxGeometry relative="1" as="geometry" />
        </mxCell>
        <mxCell id="KzjgPmNYYBk2v8gUAsIT-53" style="edgeStyle=none;shape=connector;rounded=0;orthogonalLoop=1;jettySize=auto;html=1;entryX=0.734;entryY=0.996;entryDx=0;entryDy=0;entryPerimeter=0;labelBackgroundColor=default;strokeColor=default;fontFamily=Helvetica;fontSize=11;fontColor=default;endArrow=classic;" parent="1" source="KzjgPmNYYBk2v8gUAsIT-47" target="KzjgPmNYYBk2v8gUAsIT-52" edge="1">
          <mxGeometry relative="1" as="geometry" />
        </mxCell>
        <mxCell id="KzjgPmNYYBk2v8gUAsIT-54" style="edgeStyle=none;shape=connector;rounded=0;orthogonalLoop=1;jettySize=auto;html=1;labelBackgroundColor=default;strokeColor=default;fontFamily=Helvetica;fontSize=11;fontColor=default;endArrow=classic;entryX=0.454;entryY=0.965;entryDx=0;entryDy=0;entryPerimeter=0;" parent="1" source="KzjgPmNYYBk2v8gUAsIT-47" target="KzjgPmNYYBk2v8gUAsIT-55" edge="1">
          <mxGeometry relative="1" as="geometry">
            <mxPoint x="-730" y="60" as="targetPoint" />
          </mxGeometry>
        </mxCell>
        <mxCell id="OS4BAHrAxZM2ujXpV3Zd-2" style="edgeStyle=none;shape=connector;rounded=0;orthogonalLoop=1;jettySize=auto;html=1;labelBackgroundColor=default;strokeColor=default;align=center;verticalAlign=middle;fontFamily=Helvetica;fontSize=11;fontColor=default;endArrow=classic;" edge="1" parent="1" source="KzjgPmNYYBk2v8gUAsIT-47" target="OS4BAHrAxZM2ujXpV3Zd-1">
          <mxGeometry relative="1" as="geometry" />
        </mxCell>
        <mxCell id="KzjgPmNYYBk2v8gUAsIT-47" value="Inventario" style="whiteSpace=wrap;html=1;align=center;fontFamily=Helvetica;fontSize=11;fontColor=default;" parent="1" vertex="1">
          <mxGeometry x="-740" y="120" width="100" height="40" as="geometry" />
        </mxCell>
        <mxCell id="KzjgPmNYYBk2v8gUAsIT-48" value="ProductoID" style="ellipse;whiteSpace=wrap;html=1;align=center;fontFamily=Helvetica;fontSize=11;fontColor=default;" parent="1" vertex="1">
          <mxGeometry x="-940" y="130" width="100" height="40" as="geometry" />
        </mxCell>
        <mxCell id="KzjgPmNYYBk2v8gUAsIT-50" value="SucursalID" style="ellipse;whiteSpace=wrap;html=1;align=center;fontFamily=Helvetica;fontSize=11;fontColor=default;" parent="1" vertex="1">
          <mxGeometry x="-930" y="70" width="100" height="40" as="geometry" />
        </mxCell>
        <mxCell id="KzjgPmNYYBk2v8gUAsIT-52" value="idi" style="ellipse;whiteSpace=wrap;html=1;align=center;fontStyle=4;fontFamily=Helvetica;fontSize=11;fontColor=default;" parent="1" vertex="1">
          <mxGeometry x="-880" y="20" width="100" height="40" as="geometry" />
        </mxCell>
        <mxCell id="KzjgPmNYYBk2v8gUAsIT-55" value="CantidadBodega" style="ellipse;whiteSpace=wrap;html=1;align=center;fontFamily=Helvetica;fontSize=11;fontColor=default;" parent="1" vertex="1">
          <mxGeometry x="-770" y="20" width="100" height="40" as="geometry" />
        </mxCell>
        <mxCell id="KzjgPmNYYBk2v8gUAsIT-58" style="edgeStyle=none;shape=connector;rounded=0;orthogonalLoop=1;jettySize=auto;html=1;labelBackgroundColor=default;strokeColor=default;fontFamily=Helvetica;fontSize=11;fontColor=default;endArrow=classic;exitX=0;exitY=1;exitDx=0;exitDy=0;" parent="1" source="KzjgPmNYYBk2v8gUAsIT-47" target="KzjgPmNYYBk2v8gUAsIT-59" edge="1">
          <mxGeometry relative="1" as="geometry">
            <mxPoint x="-714.9999999999999" y="100.44000000000005" as="sourcePoint" />
          </mxGeometry>
        </mxCell>
        <mxCell id="KzjgPmNYYBk2v8gUAsIT-59" value="Cant Estanteria" style="ellipse;whiteSpace=wrap;html=1;align=center;fontFamily=Helvetica;fontSize=11;fontColor=default;" parent="1" vertex="1">
          <mxGeometry x="-890" y="200" width="100" height="40" as="geometry" />
        </mxCell>
        <mxCell id="KzjgPmNYYBk2v8gUAsIT-60" value="&lt;u&gt;NIT&lt;/u&gt;" style="ellipse;whiteSpace=wrap;html=1;align=center;fontFamily=Helvetica;fontSize=11;fontColor=default;" parent="1" vertex="1">
          <mxGeometry x="800" y="340" width="100" height="40" as="geometry" />
        </mxCell>
        <mxCell id="KzjgPmNYYBk2v8gUAsIT-61" value="Total" style="ellipse;whiteSpace=wrap;html=1;align=center;fontFamily=Helvetica;fontSize=11;fontColor=default;" parent="1" vertex="1">
          <mxGeometry x="740" y="492.5" width="100" height="40" as="geometry" />
        </mxCell>
        <mxCell id="KzjgPmNYYBk2v8gUAsIT-62" value="Nombre" style="ellipse;whiteSpace=wrap;html=1;align=center;fontFamily=Helvetica;fontSize=11;fontColor=default;" parent="1" vertex="1">
          <mxGeometry x="830" y="288" width="100" height="40" as="geometry" />
        </mxCell>
        <mxCell id="KzjgPmNYYBk2v8gUAsIT-68" value="Telefono" style="ellipse;whiteSpace=wrap;html=1;align=center;fontFamily=Helvetica;fontSize=11;fontColor=default;" parent="1" vertex="1">
          <mxGeometry x="740" y="405" width="100" height="40" as="geometry" />
        </mxCell>
        <mxCell id="KzjgPmNYYBk2v8gUAsIT-71" value="TotalSinDescuento" style="ellipse;whiteSpace=wrap;html=1;align=center;fontFamily=Helvetica;fontSize=11;fontColor=default;" parent="1" vertex="1">
          <mxGeometry x="530" y="-160" width="100" height="40" as="geometry" />
        </mxCell>
        <mxCell id="KzjgPmNYYBk2v8gUAsIT-73" value="TotalConDescuento" style="ellipse;whiteSpace=wrap;html=1;align=center;fontFamily=Helvetica;fontSize=11;fontColor=default;" parent="1" vertex="1">
          <mxGeometry x="540" y="-100" width="100" height="40" as="geometry" />
        </mxCell>
        <mxCell id="KzjgPmNYYBk2v8gUAsIT-86" style="edgeStyle=none;shape=connector;rounded=0;orthogonalLoop=1;jettySize=auto;html=1;labelBackgroundColor=default;strokeColor=default;fontFamily=Helvetica;fontSize=11;fontColor=default;endArrow=classic;entryX=0.387;entryY=0.057;entryDx=0;entryDy=0;entryPerimeter=0;" parent="1" source="KzjgPmNYYBk2v8gUAsIT-81" target="KzjgPmNYYBk2v8gUAsIT-83" edge="1">
          <mxGeometry relative="1" as="geometry">
            <mxPoint x="-10" y="440.85" as="targetPoint" />
          </mxGeometry>
        </mxCell>
        <mxCell id="KzjgPmNYYBk2v8gUAsIT-87" style="edgeStyle=none;shape=connector;rounded=0;orthogonalLoop=1;jettySize=auto;html=1;entryX=0.42;entryY=0.02;entryDx=0;entryDy=0;entryPerimeter=0;labelBackgroundColor=default;strokeColor=default;fontFamily=Helvetica;fontSize=11;fontColor=default;endArrow=classic;" parent="1" source="KzjgPmNYYBk2v8gUAsIT-81" target="KzjgPmNYYBk2v8gUAsIT-84" edge="1">
          <mxGeometry relative="1" as="geometry" />
        </mxCell>
        <mxCell id="KzjgPmNYYBk2v8gUAsIT-88" style="edgeStyle=none;shape=connector;rounded=0;orthogonalLoop=1;jettySize=auto;html=1;labelBackgroundColor=default;strokeColor=default;fontFamily=Helvetica;fontSize=11;fontColor=default;endArrow=classic;" parent="1" source="KzjgPmNYYBk2v8gUAsIT-81" target="KzjgPmNYYBk2v8gUAsIT-85" edge="1">
          <mxGeometry relative="1" as="geometry" />
        </mxCell>
        <mxCell id="KzjgPmNYYBk2v8gUAsIT-90" style="edgeStyle=none;shape=connector;rounded=0;orthogonalLoop=1;jettySize=auto;html=1;labelBackgroundColor=default;strokeColor=default;fontFamily=Helvetica;fontSize=11;fontColor=default;endArrow=classic;" parent="1" source="KzjgPmNYYBk2v8gUAsIT-81" target="KzjgPmNYYBk2v8gUAsIT-89" edge="1">
          <mxGeometry relative="1" as="geometry" />
        </mxCell>
        <mxCell id="KzjgPmNYYBk2v8gUAsIT-81" value="Tarjeta" style="whiteSpace=wrap;html=1;align=center;fontFamily=Helvetica;fontSize=11;fontColor=default;" parent="1" vertex="1">
          <mxGeometry x="90" y="410.85" width="100" height="40" as="geometry" />
        </mxCell>
        <mxCell id="KzjgPmNYYBk2v8gUAsIT-83" value="&lt;u&gt;ID&lt;/u&gt;" style="ellipse;whiteSpace=wrap;html=1;align=center;fontFamily=Helvetica;fontSize=11;fontColor=default;" parent="1" vertex="1">
          <mxGeometry x="-10" y="470.85" width="100" height="40" as="geometry" />
        </mxCell>
        <mxCell id="KzjgPmNYYBk2v8gUAsIT-84" value="ClienteID" style="ellipse;whiteSpace=wrap;html=1;align=center;fontFamily=Helvetica;fontSize=11;fontColor=default;" parent="1" vertex="1">
          <mxGeometry x="100" y="470.85" width="100" height="40" as="geometry" />
        </mxCell>
        <mxCell id="KzjgPmNYYBk2v8gUAsIT-85" value="TipoTarjeta" style="ellipse;whiteSpace=wrap;html=1;align=center;fontFamily=Helvetica;fontSize=11;fontColor=default;" parent="1" vertex="1">
          <mxGeometry x="200" y="470.85" width="100" height="40" as="geometry" />
        </mxCell>
        <mxCell id="KzjgPmNYYBk2v8gUAsIT-89" value="Puntos" style="ellipse;whiteSpace=wrap;html=1;align=center;fontFamily=Helvetica;fontSize=11;fontColor=default;" parent="1" vertex="1">
          <mxGeometry x="-90" y="430.85" width="100" height="40" as="geometry" />
        </mxCell>
        <mxCell id="KzjgPmNYYBk2v8gUAsIT-93" style="edgeStyle=none;shape=connector;rounded=0;orthogonalLoop=1;jettySize=auto;html=1;entryX=0.5;entryY=1;entryDx=0;entryDy=0;labelBackgroundColor=default;strokeColor=default;fontFamily=Helvetica;fontSize=11;fontColor=default;endArrow=none;exitX=1;exitY=0.5;exitDx=0;exitDy=0;endFill=0;" parent="1" source="KzjgPmNYYBk2v8gUAsIT-91" target="FdMqnzVVtMSlfl-rAJJf-1" edge="1">
          <mxGeometry relative="1" as="geometry" />
        </mxCell>
        <mxCell id="KzjgPmNYYBk2v8gUAsIT-96" value="1:N" style="edgeLabel;html=1;align=center;verticalAlign=middle;resizable=0;points=[];fontSize=11;fontFamily=Helvetica;fontColor=default;" parent="KzjgPmNYYBk2v8gUAsIT-93" vertex="1" connectable="0">
          <mxGeometry x="0.0007" y="1" relative="1" as="geometry">
            <mxPoint as="offset" />
          </mxGeometry>
        </mxCell>
        <mxCell id="KzjgPmNYYBk2v8gUAsIT-94" style="edgeStyle=none;shape=connector;rounded=0;orthogonalLoop=1;jettySize=auto;html=1;labelBackgroundColor=default;strokeColor=default;fontFamily=Helvetica;fontSize=11;fontColor=default;endArrow=none;endFill=0;exitX=0;exitY=0.5;exitDx=0;exitDy=0;" parent="1" source="KzjgPmNYYBk2v8gUAsIT-91" target="KzjgPmNYYBk2v8gUAsIT-1" edge="1">
          <mxGeometry relative="1" as="geometry" />
        </mxCell>
        <mxCell id="KzjgPmNYYBk2v8gUAsIT-95" value="1:1" style="edgeLabel;html=1;align=center;verticalAlign=middle;resizable=0;points=[];fontSize=11;fontFamily=Helvetica;fontColor=default;" parent="KzjgPmNYYBk2v8gUAsIT-94" vertex="1" connectable="0">
          <mxGeometry x="-0.0154" y="1" relative="1" as="geometry">
            <mxPoint as="offset" />
          </mxGeometry>
        </mxCell>
        <mxCell id="KzjgPmNYYBk2v8gUAsIT-91" value="Contratar" style="shape=rhombus;perimeter=rhombusPerimeter;whiteSpace=wrap;html=1;align=center;fontFamily=Helvetica;fontSize=11;fontColor=default;" parent="1" vertex="1">
          <mxGeometry x="-380" y="-50" width="120" height="60" as="geometry" />
        </mxCell>
        <mxCell id="KzjgPmNYYBk2v8gUAsIT-97" value="1:N" style="text;html=1;align=center;verticalAlign=middle;resizable=0;points=[];autosize=1;strokeColor=none;fillColor=none;fontSize=11;fontFamily=Helvetica;fontColor=default;" parent="1" vertex="1">
          <mxGeometry x="-340" y="-72" width="40" height="30" as="geometry" />
        </mxCell>
        <mxCell id="KzjgPmNYYBk2v8gUAsIT-99" style="edgeStyle=none;shape=connector;rounded=0;orthogonalLoop=1;jettySize=auto;html=1;labelBackgroundColor=default;strokeColor=default;fontFamily=Helvetica;fontSize=11;fontColor=default;endArrow=none;endFill=0;" parent="1" source="KzjgPmNYYBk2v8gUAsIT-98" target="KzjgPmNYYBk2v8gUAsIT-1" edge="1">
          <mxGeometry relative="1" as="geometry" />
        </mxCell>
        <mxCell id="KzjgPmNYYBk2v8gUAsIT-101" value="1:1" style="edgeLabel;html=1;align=center;verticalAlign=middle;resizable=0;points=[];fontSize=11;fontFamily=Helvetica;fontColor=default;" parent="KzjgPmNYYBk2v8gUAsIT-99" vertex="1" connectable="0">
          <mxGeometry x="-0.0878" y="-2" relative="1" as="geometry">
            <mxPoint as="offset" />
          </mxGeometry>
        </mxCell>
        <mxCell id="KzjgPmNYYBk2v8gUAsIT-100" style="edgeStyle=none;shape=connector;rounded=0;orthogonalLoop=1;jettySize=auto;html=1;entryX=1;entryY=0.5;entryDx=0;entryDy=0;labelBackgroundColor=default;strokeColor=default;fontFamily=Helvetica;fontSize=11;fontColor=default;endArrow=none;endFill=0;" parent="1" source="KzjgPmNYYBk2v8gUAsIT-98" target="KzjgPmNYYBk2v8gUAsIT-47" edge="1">
          <mxGeometry relative="1" as="geometry" />
        </mxCell>
        <mxCell id="KzjgPmNYYBk2v8gUAsIT-102" value="1:1" style="edgeLabel;html=1;align=center;verticalAlign=middle;resizable=0;points=[];fontSize=11;fontFamily=Helvetica;fontColor=default;" parent="KzjgPmNYYBk2v8gUAsIT-100" vertex="1" connectable="0">
          <mxGeometry x="-0.0528" y="2" relative="1" as="geometry">
            <mxPoint as="offset" />
          </mxGeometry>
        </mxCell>
        <mxCell id="KzjgPmNYYBk2v8gUAsIT-98" value="Tiene" style="shape=rhombus;perimeter=rhombusPerimeter;whiteSpace=wrap;html=1;align=center;fontFamily=Helvetica;fontSize=11;fontColor=default;" parent="1" vertex="1">
          <mxGeometry x="-620" width="120" height="60" as="geometry" />
        </mxCell>
        <mxCell id="KzjgPmNYYBk2v8gUAsIT-103" value="1:1" style="text;html=1;align=center;verticalAlign=middle;resizable=0;points=[];autosize=1;strokeColor=none;fillColor=none;fontSize=11;fontFamily=Helvetica;fontColor=default;" parent="1" vertex="1">
          <mxGeometry x="-620" y="-10" width="40" height="30" as="geometry" />
        </mxCell>
        <mxCell id="KzjgPmNYYBk2v8gUAsIT-106" style="edgeStyle=none;shape=connector;rounded=0;orthogonalLoop=1;jettySize=auto;html=1;labelBackgroundColor=default;strokeColor=default;fontFamily=Helvetica;fontSize=11;fontColor=default;endArrow=none;endFill=0;" parent="1" source="KzjgPmNYYBk2v8gUAsIT-104" target="KzjgPmNYYBk2v8gUAsIT-47" edge="1">
          <mxGeometry relative="1" as="geometry" />
        </mxCell>
        <mxCell id="KzjgPmNYYBk2v8gUAsIT-107" value="1:N" style="edgeLabel;html=1;align=center;verticalAlign=middle;resizable=0;points=[];fontSize=11;fontFamily=Helvetica;fontColor=default;" parent="KzjgPmNYYBk2v8gUAsIT-106" vertex="1" connectable="0">
          <mxGeometry x="0.1502" y="2" relative="1" as="geometry">
            <mxPoint as="offset" />
          </mxGeometry>
        </mxCell>
        <mxCell id="KzjgPmNYYBk2v8gUAsIT-104" value="Almacena" style="shape=rhombus;perimeter=rhombusPerimeter;whiteSpace=wrap;html=1;align=center;fontFamily=Helvetica;fontSize=11;fontColor=default;" parent="1" vertex="1">
          <mxGeometry x="-551.48" y="210" width="120" height="60" as="geometry" />
        </mxCell>
        <mxCell id="KzjgPmNYYBk2v8gUAsIT-109" value="N:N" style="text;html=1;align=center;verticalAlign=middle;resizable=0;points=[];autosize=1;strokeColor=none;fillColor=none;fontSize=11;fontFamily=Helvetica;fontColor=default;" parent="1" vertex="1">
          <mxGeometry x="-471.48" y="258" width="40" height="30" as="geometry" />
        </mxCell>
        <mxCell id="KzjgPmNYYBk2v8gUAsIT-111" style="edgeStyle=none;shape=connector;rounded=0;orthogonalLoop=1;jettySize=auto;html=1;entryX=0.641;entryY=1.081;entryDx=0;entryDy=0;entryPerimeter=0;labelBackgroundColor=default;strokeColor=default;fontFamily=Helvetica;fontSize=11;fontColor=default;endArrow=none;endFill=0;" parent="1" source="KzjgPmNYYBk2v8gUAsIT-110" target="FdMqnzVVtMSlfl-rAJJf-1" edge="1">
          <mxGeometry relative="1" as="geometry" />
        </mxCell>
        <mxCell id="KzjgPmNYYBk2v8gUAsIT-113" value="1:1" style="edgeLabel;html=1;align=center;verticalAlign=middle;resizable=0;points=[];fontSize=11;fontFamily=Helvetica;fontColor=default;" parent="KzjgPmNYYBk2v8gUAsIT-111" vertex="1" connectable="0">
          <mxGeometry x="0.0848" y="-2" relative="1" as="geometry">
            <mxPoint as="offset" />
          </mxGeometry>
        </mxCell>
        <mxCell id="KzjgPmNYYBk2v8gUAsIT-112" style="edgeStyle=none;shape=connector;rounded=0;orthogonalLoop=1;jettySize=auto;html=1;labelBackgroundColor=default;strokeColor=default;fontFamily=Helvetica;fontSize=11;fontColor=default;endArrow=none;endFill=0;" parent="1" source="KzjgPmNYYBk2v8gUAsIT-110" target="KzjgPmNYYBk2v8gUAsIT-29" edge="1">
          <mxGeometry relative="1" as="geometry">
            <Array as="points" />
          </mxGeometry>
        </mxCell>
        <mxCell id="KzjgPmNYYBk2v8gUAsIT-114" value="1:N" style="edgeLabel;html=1;align=center;verticalAlign=middle;resizable=0;points=[];fontSize=11;fontFamily=Helvetica;fontColor=default;" parent="KzjgPmNYYBk2v8gUAsIT-112" vertex="1" connectable="0">
          <mxGeometry x="-0.1735" relative="1" as="geometry">
            <mxPoint as="offset" />
          </mxGeometry>
        </mxCell>
        <mxCell id="KzjgPmNYYBk2v8gUAsIT-110" value="Realizar" style="shape=rhombus;perimeter=rhombusPerimeter;whiteSpace=wrap;html=1;align=center;fontFamily=Helvetica;fontSize=11;fontColor=default;" parent="1" vertex="1">
          <mxGeometry x="120" y="-90" width="120" height="60" as="geometry" />
        </mxCell>
        <mxCell id="KzjgPmNYYBk2v8gUAsIT-116" value="1:N" style="text;html=1;align=center;verticalAlign=middle;resizable=0;points=[];autosize=1;strokeColor=none;fillColor=none;fontSize=11;fontFamily=Helvetica;fontColor=default;" parent="1" vertex="1">
          <mxGeometry x="180" y="-112" width="40" height="30" as="geometry" />
        </mxCell>
        <mxCell id="KzjgPmNYYBk2v8gUAsIT-119" style="edgeStyle=none;shape=connector;rounded=0;orthogonalLoop=1;jettySize=auto;html=1;entryX=0.5;entryY=1;entryDx=0;entryDy=0;labelBackgroundColor=default;strokeColor=default;fontFamily=Helvetica;fontSize=11;fontColor=default;endArrow=none;endFill=0;" parent="1" source="KzjgPmNYYBk2v8gUAsIT-117" target="KzjgPmNYYBk2v8gUAsIT-29" edge="1">
          <mxGeometry relative="1" as="geometry" />
        </mxCell>
        <mxCell id="KzjgPmNYYBk2v8gUAsIT-121" value="1:N" style="edgeLabel;html=1;align=center;verticalAlign=middle;resizable=0;points=[];fontSize=11;fontFamily=Helvetica;fontColor=default;" parent="KzjgPmNYYBk2v8gUAsIT-119" vertex="1" connectable="0">
          <mxGeometry x="0.0024" y="1" relative="1" as="geometry">
            <mxPoint as="offset" />
          </mxGeometry>
        </mxCell>
        <mxCell id="KzjgPmNYYBk2v8gUAsIT-117" value="Comprar" style="shape=rhombus;perimeter=rhombusPerimeter;whiteSpace=wrap;html=1;align=center;fontFamily=Helvetica;fontSize=11;fontColor=default;" parent="1" vertex="1">
          <mxGeometry x="360" y="120" width="120" height="60" as="geometry" />
        </mxCell>
        <mxCell id="KzjgPmNYYBk2v8gUAsIT-122" value="1:N" style="text;html=1;align=center;verticalAlign=middle;resizable=0;points=[];autosize=1;strokeColor=none;fillColor=none;fontSize=11;fontFamily=Helvetica;fontColor=default;" parent="1" vertex="1">
          <mxGeometry x="450" y="110" width="40" height="30" as="geometry" />
        </mxCell>
        <mxCell id="KzjgPmNYYBk2v8gUAsIT-131" style="edgeStyle=none;shape=connector;rounded=0;orthogonalLoop=1;jettySize=auto;html=1;labelBackgroundColor=default;strokeColor=default;fontFamily=Helvetica;fontSize=11;fontColor=default;endArrow=none;endFill=0;" parent="1" source="KzjgPmNYYBk2v8gUAsIT-129" target="KzjgPmNYYBk2v8gUAsIT-81" edge="1">
          <mxGeometry relative="1" as="geometry" />
        </mxCell>
        <mxCell id="KzjgPmNYYBk2v8gUAsIT-133" value="1:1" style="edgeLabel;html=1;align=center;verticalAlign=middle;resizable=0;points=[];fontSize=11;fontFamily=Helvetica;fontColor=default;" parent="KzjgPmNYYBk2v8gUAsIT-131" vertex="1" connectable="0">
          <mxGeometry x="-0.1552" y="-1" relative="1" as="geometry">
            <mxPoint as="offset" />
          </mxGeometry>
        </mxCell>
        <mxCell id="KzjgPmNYYBk2v8gUAsIT-129" value="Obtener" style="shape=rhombus;perimeter=rhombusPerimeter;whiteSpace=wrap;html=1;align=center;fontFamily=Helvetica;fontSize=11;fontColor=default;" parent="1" vertex="1">
          <mxGeometry x="410" y="380" width="120" height="60" as="geometry" />
        </mxCell>
        <mxCell id="KzjgPmNYYBk2v8gUAsIT-134" value="1:1" style="text;html=1;align=center;verticalAlign=middle;resizable=0;points=[];autosize=1;strokeColor=none;fillColor=none;fontSize=11;fontFamily=Helvetica;fontColor=default;" parent="1" vertex="1">
          <mxGeometry x="620" y="490.85" width="40" height="30" as="geometry" />
        </mxCell>
        <mxCell id="h8VuNswX9k5Umud3PTe8-6" style="edgeStyle=none;shape=connector;rounded=0;orthogonalLoop=1;jettySize=auto;html=1;labelBackgroundColor=default;strokeColor=default;fontFamily=Helvetica;fontSize=11;fontColor=default;endArrow=none;endFill=0;" parent="1" source="h8VuNswX9k5Umud3PTe8-3" target="h8VuNswX9k5Umud3PTe8-4" edge="1">
          <mxGeometry relative="1" as="geometry" />
        </mxCell>
        <mxCell id="h8VuNswX9k5Umud3PTe8-8" style="edgeStyle=none;shape=connector;rounded=0;orthogonalLoop=1;jettySize=auto;html=1;labelBackgroundColor=default;strokeColor=default;fontFamily=Helvetica;fontSize=11;fontColor=default;endArrow=none;endFill=0;" parent="1" source="h8VuNswX9k5Umud3PTe8-3" target="h8VuNswX9k5Umud3PTe8-7" edge="1">
          <mxGeometry relative="1" as="geometry" />
        </mxCell>
        <mxCell id="h8VuNswX9k5Umud3PTe8-11" style="edgeStyle=none;shape=connector;rounded=0;orthogonalLoop=1;jettySize=auto;html=1;entryX=0.661;entryY=0.928;entryDx=0;entryDy=0;entryPerimeter=0;labelBackgroundColor=default;strokeColor=default;fontFamily=Helvetica;fontSize=11;fontColor=default;endArrow=none;endFill=0;" parent="1" source="h8VuNswX9k5Umud3PTe8-3" target="h8VuNswX9k5Umud3PTe8-10" edge="1">
          <mxGeometry relative="1" as="geometry" />
        </mxCell>
        <mxCell id="h8VuNswX9k5Umud3PTe8-13" style="edgeStyle=none;shape=connector;rounded=0;orthogonalLoop=1;jettySize=auto;html=1;labelBackgroundColor=default;strokeColor=default;fontFamily=Helvetica;fontSize=11;fontColor=default;endArrow=none;endFill=0;" parent="1" source="h8VuNswX9k5Umud3PTe8-3" target="h8VuNswX9k5Umud3PTe8-12" edge="1">
          <mxGeometry relative="1" as="geometry" />
        </mxCell>
        <mxCell id="h8VuNswX9k5Umud3PTe8-18" style="edgeStyle=none;shape=connector;rounded=0;orthogonalLoop=1;jettySize=auto;html=1;labelBackgroundColor=default;strokeColor=default;fontFamily=Helvetica;fontSize=11;fontColor=default;endArrow=none;endFill=0;" parent="1" source="h8VuNswX9k5Umud3PTe8-3" target="h8VuNswX9k5Umud3PTe8-17" edge="1">
          <mxGeometry relative="1" as="geometry" />
        </mxCell>
        <mxCell id="h8VuNswX9k5Umud3PTe8-21" value="N:1" style="edgeLabel;html=1;align=center;verticalAlign=middle;resizable=0;points=[];fontSize=11;fontFamily=Helvetica;fontColor=default;" parent="h8VuNswX9k5Umud3PTe8-18" vertex="1" connectable="0">
          <mxGeometry x="0.1047" relative="1" as="geometry">
            <mxPoint as="offset" />
          </mxGeometry>
        </mxCell>
        <mxCell id="h8VuNswX9k5Umud3PTe8-3" value="venta" style="whiteSpace=wrap;html=1;align=center;" parent="1" vertex="1">
          <mxGeometry x="-90" y="200" width="100" height="40" as="geometry" />
        </mxCell>
        <mxCell id="h8VuNswX9k5Umud3PTe8-4" value="monto" style="ellipse;whiteSpace=wrap;html=1;align=center;" parent="1" vertex="1">
          <mxGeometry x="-200" y="70" width="100" height="40" as="geometry" />
        </mxCell>
        <mxCell id="h8VuNswX9k5Umud3PTe8-7" value="Unidades" style="ellipse;whiteSpace=wrap;html=1;align=center;fontFamily=Helvetica;fontSize=11;fontColor=default;" parent="1" vertex="1">
          <mxGeometry x="-90" y="55" width="100" height="40" as="geometry" />
        </mxCell>
        <mxCell id="h8VuNswX9k5Umud3PTe8-9" style="edgeStyle=none;shape=connector;rounded=0;orthogonalLoop=1;jettySize=auto;html=1;exitX=0.5;exitY=1;exitDx=0;exitDy=0;labelBackgroundColor=default;strokeColor=default;fontFamily=Helvetica;fontSize=11;fontColor=default;endArrow=none;endFill=0;" parent="1" source="h8VuNswX9k5Umud3PTe8-7" target="h8VuNswX9k5Umud3PTe8-7" edge="1">
          <mxGeometry relative="1" as="geometry" />
        </mxCell>
        <mxCell id="h8VuNswX9k5Umud3PTe8-10" value="Factura" style="ellipse;whiteSpace=wrap;html=1;align=center;fontStyle=4;fontFamily=Helvetica;fontSize=11;fontColor=default;" parent="1" vertex="1">
          <mxGeometry x="-230" y="130" width="100" height="40" as="geometry" />
        </mxCell>
        <mxCell id="h8VuNswX9k5Umud3PTe8-12" value="Producto di" style="ellipse;whiteSpace=wrap;html=1;align=center;fontStyle=4;fontFamily=Helvetica;fontSize=11;fontColor=default;" parent="1" vertex="1">
          <mxGeometry x="-20" y="105" width="100" height="40" as="geometry" />
        </mxCell>
        <mxCell id="h8VuNswX9k5Umud3PTe8-16" style="edgeStyle=none;shape=connector;rounded=0;orthogonalLoop=1;jettySize=auto;html=1;labelBackgroundColor=default;strokeColor=default;fontFamily=Helvetica;fontSize=11;fontColor=default;endArrow=none;endFill=0;" parent="1" source="h8VuNswX9k5Umud3PTe8-14" target="h8VuNswX9k5Umud3PTe8-3" edge="1">
          <mxGeometry relative="1" as="geometry" />
        </mxCell>
        <mxCell id="h8VuNswX9k5Umud3PTe8-23" value="1:1" style="edgeLabel;html=1;align=center;verticalAlign=middle;resizable=0;points=[];fontSize=11;fontFamily=Helvetica;fontColor=default;" parent="h8VuNswX9k5Umud3PTe8-16" vertex="1" connectable="0">
          <mxGeometry x="-0.0154" y="-2" relative="1" as="geometry">
            <mxPoint as="offset" />
          </mxGeometry>
        </mxCell>
        <mxCell id="h8VuNswX9k5Umud3PTe8-14" value="guarda" style="shape=rhombus;perimeter=rhombusPerimeter;whiteSpace=wrap;html=1;align=center;fontFamily=Helvetica;fontSize=11;fontColor=default;" parent="1" vertex="1">
          <mxGeometry x="-240" y="278" width="120" height="60" as="geometry" />
        </mxCell>
        <mxCell id="h8VuNswX9k5Umud3PTe8-19" style="edgeStyle=none;shape=connector;rounded=0;orthogonalLoop=1;jettySize=auto;html=1;labelBackgroundColor=default;strokeColor=default;fontFamily=Helvetica;fontSize=11;fontColor=default;endArrow=none;endFill=0;" parent="1" source="h8VuNswX9k5Umud3PTe8-17" target="KzjgPmNYYBk2v8gUAsIT-29" edge="1">
          <mxGeometry relative="1" as="geometry" />
        </mxCell>
        <mxCell id="h8VuNswX9k5Umud3PTe8-20" value="1:1" style="edgeLabel;html=1;align=center;verticalAlign=middle;resizable=0;points=[];fontSize=11;fontFamily=Helvetica;fontColor=default;" parent="h8VuNswX9k5Umud3PTe8-19" vertex="1" connectable="0">
          <mxGeometry x="0.0031" y="1" relative="1" as="geometry">
            <mxPoint as="offset" />
          </mxGeometry>
        </mxCell>
        <mxCell id="h8VuNswX9k5Umud3PTe8-17" value="compone" style="shape=rhombus;perimeter=rhombusPerimeter;whiteSpace=wrap;html=1;align=center;fontFamily=Helvetica;fontSize=11;fontColor=default;" parent="1" vertex="1">
          <mxGeometry x="180" y="45" width="120" height="60" as="geometry" />
        </mxCell>
        <mxCell id="h8VuNswX9k5Umud3PTe8-22" value="N:1" style="text;html=1;align=center;verticalAlign=middle;resizable=0;points=[];autosize=1;strokeColor=none;fillColor=none;fontSize=11;fontFamily=Helvetica;fontColor=default;" parent="1" vertex="1">
          <mxGeometry x="190" y="38" width="40" height="30" as="geometry" />
        </mxCell>
        <mxCell id="h8VuNswX9k5Umud3PTe8-25" value="N:1" style="text;html=1;align=center;verticalAlign=middle;resizable=0;points=[];autosize=1;strokeColor=none;fillColor=none;fontSize=11;fontFamily=Helvetica;fontColor=default;" parent="1" vertex="1">
          <mxGeometry x="-230" y="268" width="40" height="30" as="geometry" />
        </mxCell>
        <mxCell id="OS4BAHrAxZM2ujXpV3Zd-1" value="NumeroPasillo" style="ellipse;whiteSpace=wrap;html=1;align=center;fontFamily=Helvetica;fontSize=11;fontColor=default;" vertex="1" parent="1">
          <mxGeometry x="-760" y="228" width="100" height="40" as="geometry" />
        </mxCell>
        <mxCell id="OS4BAHrAxZM2ujXpV3Zd-5" style="edgeStyle=none;shape=connector;rounded=0;orthogonalLoop=1;jettySize=auto;html=1;entryX=0.5;entryY=0;entryDx=0;entryDy=0;labelBackgroundColor=default;strokeColor=default;align=center;verticalAlign=middle;fontFamily=Helvetica;fontSize=11;fontColor=default;endArrow=none;endFill=0;" edge="1" parent="1" source="OS4BAHrAxZM2ujXpV3Zd-4" target="KzjgPmNYYBk2v8gUAsIT-81">
          <mxGeometry relative="1" as="geometry" />
        </mxCell>
        <mxCell id="OS4BAHrAxZM2ujXpV3Zd-7" value="1:1" style="edgeLabel;html=1;align=center;verticalAlign=middle;resizable=0;points=[];fontSize=11;fontFamily=Helvetica;fontColor=default;" vertex="1" connectable="0" parent="OS4BAHrAxZM2ujXpV3Zd-5">
          <mxGeometry x="0.0236" y="1" relative="1" as="geometry">
            <mxPoint as="offset" />
          </mxGeometry>
        </mxCell>
        <mxCell id="OS4BAHrAxZM2ujXpV3Zd-6" style="edgeStyle=none;shape=connector;rounded=0;orthogonalLoop=1;jettySize=auto;html=1;labelBackgroundColor=default;strokeColor=default;align=center;verticalAlign=middle;fontFamily=Helvetica;fontSize=11;fontColor=default;endArrow=none;endFill=0;" edge="1" parent="1" source="OS4BAHrAxZM2ujXpV3Zd-4" target="KzjgPmNYYBk2v8gUAsIT-29">
          <mxGeometry relative="1" as="geometry" />
        </mxCell>
        <mxCell id="OS4BAHrAxZM2ujXpV3Zd-8" value="1:1" style="edgeLabel;html=1;align=center;verticalAlign=middle;resizable=0;points=[];fontSize=11;fontFamily=Helvetica;fontColor=default;" vertex="1" connectable="0" parent="OS4BAHrAxZM2ujXpV3Zd-6">
          <mxGeometry x="-0.032" relative="1" as="geometry">
            <mxPoint as="offset" />
          </mxGeometry>
        </mxCell>
        <mxCell id="OS4BAHrAxZM2ujXpV3Zd-4" value="Efectua" style="shape=rhombus;perimeter=rhombusPerimeter;whiteSpace=wrap;html=1;align=center;fontFamily=Helvetica;fontSize=11;fontColor=default;" vertex="1" parent="1">
          <mxGeometry x="200" y="180" width="120" height="60" as="geometry" />
        </mxCell>
        <mxCell id="OS4BAHrAxZM2ujXpV3Zd-10" value="1:1" style="text;html=1;align=center;verticalAlign=middle;resizable=0;points=[];autosize=1;strokeColor=none;fillColor=none;fontSize=11;fontFamily=Helvetica;fontColor=default;" vertex="1" parent="1">
          <mxGeometry x="200" y="168" width="40" height="30" as="geometry" />
        </mxCell>
      </root>
    </mxGraphModel>
  </diagram>
</mxfile>
